<?xml version="1.0" encoding="utf-8"?>
<!-- Generator: Adobe Illustrator 19.2.1, SVG Export Plug-In . SVG Version: 6.00 Build 0)  -->
<svg version="1.1" id="Layer_1" xmlns="http://www.w3.org/2000/svg" xmlns:xlink="http://www.w3.org/1999/xlink" x="0px" y="0px"
	 viewBox="0 0 150 100" style="enable-background:new 0 0 150 100;" xml:space="preserve">
<style type="text/css">
	.st0{fill:url(#SVGID_1_);}
	.st1{fill:url(#SVGID_2_);}
	.st2{fill:url(#SVGID_3_);}
</style>
<g>
	<linearGradient id="SVGID_1_" gradientUnits="userSpaceOnUse" x1="-0.3272" y1="49.8702" x2="128.4863" y2="49.8702">
		<stop  offset="0" style="stop-color:#D2E5A6"/>
		<stop  offset="0.5" style="stop-color:#ACD479"/>
		<stop  offset="1" style="stop-color:#77B843"/>
	</linearGradient>
	<path class="st0" d="M126.2,29.5c0,0-21.7-14-43.3-4C61.2,35.5,26.7,55.2,5,41.6c0,0,29.7,50.2,91.1,32.5L112.2,58l16.1-10.8
		l5.6-14.4L126.2,29.5z"/>
	<linearGradient id="SVGID_2_" gradientUnits="userSpaceOnUse" x1="104.125" y1="17.4902" x2="128.2012" y2="17.4902">
		<stop  offset="0" style="stop-color:#64C18B"/>
		<stop  offset="0.5" style="stop-color:#04A54F"/>
		<stop  offset="1" style="stop-color:#04924C"/>
	</linearGradient>
	<circle class="st1" cx="116.2" cy="17.5" r="12"/>
	<linearGradient id="SVGID_3_" gradientUnits="userSpaceOnUse" x1="49.9502" y1="50.396" x2="146.2598" y2="50.396">
		<stop  offset="0" style="stop-color:#64C18B"/>
		<stop  offset="0.5" style="stop-color:#04A54F"/>
		<stop  offset="1" style="stop-color:#04924C"/>
	</linearGradient>
	<path class="st2" d="M146.3,5.5c0,0-6.8,18.1-20.1,24.1c0,0,2,8.8-4.8,16.1c0,0-18.1-24.1-51,6.4c0,0,27.3-11.2,26.5,4
		c-0.8,15.2-29.7,36.9-47,39.3C50,95.3,133.8,95.3,146.3,5.5z"/>
</g>
</svg>
